<?xml version="1.0" encoding="UTF-8"?>
<svg version="1.1" xmlns="http://www.w3.org/2000/svg" width="240" height="240">
<path d="M0 0 C4.11556698 0.34599899 6.00886308 2.73545758 8.75 5.625 C11.7242058 8.69472774 14.67647146 11.67403045 17.9375 14.4375 C21.80143842 17.73941101 25.35205046 21.32246438 28.91796875 24.9375 C31.67191921 27.71452826 34.48107783 30.37746963 37.4375 32.9375 C38.06398438 33.4840625 38.69046875 34.030625 39.3359375 34.59375 C40.70804142 35.75327444 42.12955967 36.85405731 43.5625 37.9375 C45.46304889 40.66437449 44.98371036 42.53714955 44.51049805 45.72387695 C43.60187247 49.77510422 41.92315918 53.39851895 40.125 57.125 C39.72788818 57.95177246 39.33077637 58.77854492 38.92163086 59.63037109 C32.90799267 71.67161374 24.55657759 81.63975735 14 90 C13.33484375 90.5465625 12.6696875 91.093125 11.984375 91.65625 C6.55235861 95.63089614 1.5588156 95.81336236 -5 95 C-9.07841741 94.24544502 -13.09801232 93.42246374 -17 92 C-17.33 91.34 -17.66 90.68 -18 90 C-16.68 88.02 -15.36 86.04 -14 84 C-15.0209375 85.2684375 -15.0209375 85.2684375 -16.0625 86.5625 C-19 89 -19 89 -22.0625 89.25 C-32.27276552 86.85280722 -40.71617965 79.10655923 -48 72 C-45.28733409 69.13801303 -42.55831983 66.89067754 -39.25 64.75 C-38.05117187 63.96882813 -38.05117187 63.96882813 -36.828125 63.171875 C-36.22484375 62.78515625 -35.6215625 62.3984375 -35 62 C-35.88042969 62.44472656 -36.76085937 62.88945312 -37.66796875 63.34765625 C-38.82941406 63.91355469 -39.99085937 64.47945313 -41.1875 65.0625 C-42.33605469 65.63097656 -43.48460938 66.19945312 -44.66796875 66.78515625 C-48.17783945 68.06483947 -49.57924193 68.41850548 -53 67 C-58.9942606 60.94100657 -63.22818899 51.96895665 -66 44 C-65 41 -65 41 -63.23413086 40.10864258 C-62.48526611 39.87298584 -61.73640137 39.6373291 -60.96484375 39.39453125 C-60.15595703 39.13349609 -59.34707031 38.87246094 -58.51367188 38.60351562 C-57.66353516 38.34248047 -56.81339844 38.08144531 -55.9375 37.8125 C-55.08349609 37.53986328 -54.22949219 37.26722656 -53.34960938 36.98632812 C-51.23624531 36.31335745 -49.11996032 35.65183324 -47 35 C-47 34.67 -47 34.34 -47 34 C-47.65355469 34.16371094 -48.30710937 34.32742187 -48.98046875 34.49609375 C-52.76991774 35.12848563 -56.48490951 35.10696709 -60.3125 35.0625 C-61.05306641 35.05798828 -61.79363281 35.05347656 -62.55664062 35.04882812 C-64.37112899 35.03712175 -66.18557534 35.01918898 -68 35 C-70.18256078 30.43227786 -70.66718269 25.96923194 -71.1875 21 C-71.28224609 20.2059375 -71.37699219 19.411875 -71.47460938 18.59375 C-71.9214703 14.5003675 -72.14386315 11.0238023 -71 7 C-67.28763477 7.37123652 -63.7452304 7.80964223 -60.125 8.734375 C-39.53050595 13.9820105 -19.39637055 11.84593275 -1 1 C-0.67 0.67 -0.34 0.34 0 0 Z " fill="#0964FA" transform="translate(110,98)"/>
<path d="M0 0 C4.73041635 2.11321403 7.45860823 4.52537445 9.71484375 9.30859375 C11.25846311 14.27294984 11.10203813 18.31803974 9.08984375 23.12109375 C3.60796163 32.92757176 -6.71767432 39.91913687 -15.3203125 46.81640625 C-19.69681333 50.49520405 -23.83822309 54.41379919 -27.98388672 58.34912109 C-31.64500748 61.81780966 -35.37467232 65.1227171 -39.28515625 68.30859375 C-37.53989171 72.3077929 -35.01992397 74.62190394 -31.84375 77.52734375 C-30.10799727 79.51106115 -29.54623224 80.6978339 -29.28515625 83.30859375 C-30.72265625 86.05859375 -30.72265625 86.05859375 -32.28515625 88.30859375 C-38.36199911 88.03486209 -40.76379533 85.4110142 -44.66015625 81.18359375 C-45.80799257 79.98515337 -46.95772172 78.7885229 -48.109375 77.59375 C-48.65770996 77.02027832 -49.20604492 76.44680664 -49.77099609 75.85595703 C-51.58554491 74.00161804 -53.49161066 72.29550092 -55.47265625 70.62109375 C-59.4819395 67.21953344 -63.11955402 63.48860837 -66.8125 59.75 C-70.1674877 56.43741341 -73.70141573 53.36834088 -77.28515625 50.30859375 C-78.28515625 49.30859375 -78.28515625 49.30859375 -78.34765625 46.24609375 C-78.32703125 45.27671875 -78.30640625 44.30734375 -78.28515625 43.30859375 C-75.95549118 41.84176759 -74.68757615 41.27152876 -71.91015625 41.52734375 C-68.84152703 42.44062625 -67.30262486 43.69908912 -64.97265625 45.87109375 C-64.27527344 46.51175781 -63.57789062 47.15242188 -62.859375 47.8125 C-62.33988281 48.30621094 -61.82039063 48.79992187 -61.28515625 49.30859375 C-57.60845041 47.79807352 -55.56641163 45.65973225 -52.97265625 42.68359375 C-52.17859375 41.77867188 -51.38453125 40.87375 -50.56640625 39.94140625 C-49.4371875 38.63816406 -49.4371875 38.63816406 -48.28515625 37.30859375 C-47.71796875 36.66664062 -47.15078125 36.0246875 -46.56640625 35.36328125 C-43.88029389 32.32165402 -41.23179796 29.2495431 -38.60546875 26.15625 C-33.43414518 20.07118347 -28.21950956 14.03055239 -22.84765625 8.12109375 C-22.36401611 7.58073486 -21.88037598 7.04037598 -21.38208008 6.48364258 C-15.10804819 -0.34837165 -9.06179027 -2.74177244 0 0 Z " fill="#0964F9" transform="translate(191.28515625,47.69140625)"/>
<path d="M0 0 C2.23828125 1.62890625 2.23828125 1.62890625 4.3125 3.5625 C5.00988281 4.20316406 5.70726563 4.84382813 6.42578125 5.50390625 C6.94527344 5.99761719 7.46476562 6.49132812 8 7 C11.76488042 5.27845212 14.15063897 3.00765886 17 0 C13.65441176 9.00735294 13.65441176 9.00735294 9.8125 11.3125 C8.9153125 11.6528125 8.9153125 11.6528125 8 12 C10.77260299 13.93798263 10.77260299 13.93798263 13 15 C12.67 15.5775 12.34 16.155 12 16.75 C10.72924102 19.19883862 10.72924102 19.19883862 11 23 C13.39068734 24.10636395 13.39068734 24.10636395 16 25 C16.66 24.67 17.32 24.34 18 24 C18.3403125 25.6396875 18.3403125 25.6396875 18.6875 27.3125 C20.21426714 31.60198862 21.21748314 31.86627254 25 34 C25.8125 36.6875 25.8125 36.6875 26 39 C17.75749092 32.01178578 9.76844173 24.8452167 2.1796875 17.1484375 C-0.5988725 14.40971349 -3.5074762 11.85073468 -6.46875 9.3125 C-7.33646374 8.56874537 -8.1918855 7.8081145 -9 7 C-9.04080783 5.00041636 -9.04254356 2.99954746 -9 1 C-5.60950346 -1.13475708 -3.80910246 -1.13366145 0 0 Z " fill="#0D62EF" transform="translate(122,90)"/>
<path d="M0 0 C1.258125 0.12375 2.51625 0.2475 3.8125 0.375 C4.87404297 0.47941406 4.87404297 0.47941406 5.95703125 0.5859375 C8 1 8 1 11 3 C8.03 3 5.06 3 2 3 C2.14280856 5.3335527 2.28918437 7.66679588 2.4375 10 C2.55655924 11.90494792 2.67561849 13.80989583 2.79467773 15.71484375 C3.10358327 19.15284118 3.57185105 22.57480841 4 26 C10.6 26 17.2 26 24 26 C24 26.33 24 26.66 24 27 C19.5621439 28.11165232 15.23043614 28.11527763 10.6875 28.0625 C9.94693359 28.05798828 9.20636719 28.05347656 8.44335938 28.04882812 C6.62887101 28.03712175 4.81442466 28.01918898 3 28 C0.81743922 23.43227786 0.33281731 18.96923194 -0.1875 14 C-0.28224609 13.2059375 -0.37699219 12.411875 -0.47460938 11.59375 C-0.9214703 7.5003675 -1.14386315 4.0238023 0 0 Z " fill="#1E5ED2" transform="translate(39,105)"/>
<path d="M0 0 C0.66 0.33 1.32 0.66 2 1 C2 2.32 2 3.64 2 5 C3.71281854 7.08461118 3.71281854 7.08461118 5.9375 9 C10.699169 13.29977871 10.699169 13.29977871 11 17 C9.5625 19.75 9.5625 19.75 8 22 C4.98342209 21.85969405 2.76158727 21.70648535 0.48828125 19.59765625 C-0.73256066 18.11095765 -1.87246522 16.55865102 -3 15 C-1.35 14.67 0.3 14.34 2 14 C1.67 14.99 1.34 15.98 1 17 C3.31 17.66 5.62 18.32 8 19 C6.84084218 12.56023431 4.3101217 9.73211384 -1 6 C-1.66 5.67 -2.32 5.34 -3 5 C-2.01 3.35 -1.02 1.7 0 0 Z " fill="#195DCF" transform="translate(151,114)"/>
<path d="M0 0 C1.11375 0.495 1.11375 0.495 2.25 1 C5.13883312 2.22782871 5.13883312 2.22782871 9 2 C9.33 2 9.66 2 10 2 C10.3403125 3.6396875 10.3403125 3.6396875 10.6875 5.3125 C12.21426714 9.60198862 13.21748314 9.86627254 17 12 C17.8125 14.6875 17.8125 14.6875 18 17 C13.83096591 13.46538414 9.70924912 9.88239972 5.625 6.25 C4.77164063 5.49203125 3.91828125 4.7340625 3.0390625 3.953125 C1 2 1 2 0 0 Z " fill="#1061E8" transform="translate(130,112)"/>
<path d="M0 0 C0.66 0.33 1.32 0.66 2 1 C0.73577236 3.52845528 -0.52845528 3.76422764 -3 5 C-3.33 5.66 -3.66 6.32 -4 7 C-4.66 7 -5.32 7 -6 7 C-6 7.66 -6 8.32 -6 9 C-6.78375 8.979375 -7.5675 8.95875 -8.375 8.9375 C-10.98114961 8.81315937 -10.98114961 8.81315937 -13 10 C-15.3400417 9.71758117 -17.67504723 9.38749213 -20 9 C-15.57918 6.6475328 -10.88205593 4.93984315 -6.22460938 3.12304688 C-2.86147435 1.98028216 -2.86147435 1.98028216 0 0 Z " fill="#1761E4" transform="translate(107,100)"/>
<path d="M0 0 C0.66 0.33 1.32 0.66 2 1 C2.33 1.99 2.66 2.98 3 4 C3.99 4.33 4.98 4.66 6 5 C6 5.66 6 6.32 6 7 C5.01 7.33 4.02 7.66 3 8 C1.31461399 9.99665314 1.31461399 9.99665314 0 12 C-0.268125 11.360625 -0.53625 10.72125 -0.8125 10.0625 C-1.88667752 7.66868314 -1.88667752 7.66868314 -5 7 C-5 6.34 -5 5.68 -5 5 C-4.01 4.67 -3.02 4.34 -2 4 C-0.79117904 1.99983534 -0.79117904 1.99983534 0 0 Z " fill="#2167D6" transform="translate(168,182)"/>
<path d="M0 0 C0.66 0.33 1.32 0.66 2 1 C2.33 1.99 2.66 2.98 3 4 C3.99 4.33 4.98 4.66 6 5 C6 5.66 6 6.32 6 7 C4.68 7.33 3.36 7.66 2 8 C1.67 9.32 1.34 10.64 1 12 C0.566875 11.360625 0.13375 10.72125 -0.3125 10.0625 C-1.91239177 7.73253997 -1.91239177 7.73253997 -5 7 C-5 6.34 -5 5.68 -5 5 C-4.01 4.67 -3.02 4.34 -2 4 C-0.79117904 1.99983534 -0.79117904 1.99983534 0 0 Z " fill="#2560CF" transform="translate(186,171)"/>
<path d="M0 0 C0.66 0 1.32 0 2 0 C2.33 0.99 2.66 1.98 3 3 C4.99665314 4.68538601 4.99665314 4.68538601 7 6 C6.360625 6.268125 5.72125 6.53625 5.0625 6.8125 C2.66868314 7.88667752 2.66868314 7.88667752 2 11 C1.34 11 0.68 11 0 11 C-0.33 10.01 -0.66 9.02 -1 8 C-3.00016466 6.79117904 -3.00016466 6.79117904 -5 6 C-4.360625 5.566875 -3.72125 5.13375 -3.0625 4.6875 C-0.73253997 3.08760823 -0.73253997 3.08760823 0 0 Z " fill="#215FD6" transform="translate(173,156)"/>
<path d="M0 0 C1.65 0.33 3.3 0.66 5 1 C5 2.32 5 3.64 5 5 C4.34 5 3.68 5 3 5 C3.66 7.97 4.32 10.94 5 14 C1.67356033 11.01767477 -0.29152862 8.13629913 -2 4 C-1.33333333 2.66666667 -0.66666667 1.33333333 0 0 Z " fill="#135FEA" transform="translate(49,145)"/>
<path d="M0 0 C0.66 0.33 1.32 0.66 2 1 C-0.94491537 4.19032498 -2.76009006 6.09144787 -7 7 C-7.33 7.99 -7.66 8.98 -8 10 C-7.01 10.99 -6.02 11.98 -5 13 C-5.33 13.66 -5.66 14.32 -6 15 C-7.98 12.69 -9.96 10.38 -12 8 C-8.04 5.36 -4.08 2.72 0 0 Z " fill="#225ECD" transform="translate(74,161)"/>
<path d="M0 0 C3.09083603 2.78175243 5.00388409 4.92498037 6 9 C5.87301587 17.12698413 5.87301587 17.12698413 3 20 C3 15.38 3 10.76 3 6 C2.34 6 1.68 6 1 6 C0.67 4.02 0.34 2.04 0 0 Z " fill="#0F50CF" transform="translate(196,51)"/>
<path d="M0 0 C0.33 1.32 0.66 2.64 1 4 C0.071875 4.721875 -0.85625 5.44375 -1.8125 6.1875 C-4.00937203 7.99427326 -5.09944996 9.17105393 -6.5625 11.6875 C-8.33532414 14.53943449 -9.84092819 15.06081649 -13 16 C-8.93866463 10.40636594 -4.6208599 5.14036486 0 0 Z " fill="#1562E1" transform="translate(167,57)"/>
<path d="M0 0 C0.66 0.66 1.32 1.32 2 2 C-3.31931669 4.05519054 -3.31931669 4.05519054 -6.3125 3.8125 C-6.869375 3.544375 -7.42625 3.27625 -8 3 C-8.33 2.01 -8.66 1.02 -9 0 C-5.64961743 -0.83759564 -3.2704774 -1.24052591 0 0 Z " fill="#165AE8" transform="translate(73,129)"/>
<path d="M0 0 C1.32 0.66 2.64 1.32 4 2 C0.7 4.64 -2.6 7.28 -6 10 C-6.33 9.01 -6.66 8.02 -7 7 C-6.01 7 -5.02 7 -4 7 C-3.67 5.68 -3.34 4.36 -3 3 C-2.01 3.33 -1.02 3.66 0 4 C0 2.68 0 1.36 0 0 Z " fill="#1A5FDC" transform="translate(128,179)"/>
<path d="M0 0 C0.99 0.66 1.98 1.32 3 2 C2.50341703 7.66104589 1.45489316 11.87674471 -1 17 C-2 14 -2 14 -1.0625 10.75 C0.00871972 6.96922451 0.15936432 3.90442577 0 0 Z " fill="#1E5ECF" transform="translate(152,136)"/>
<path d="M0 0 C0.99 0.33 1.98 0.66 3 1 C3 1.99 3 2.98 3 4 C5.97 4.495 5.97 4.495 9 5 C9 5.99 9 6.98 9 8 C5.98342209 7.85969405 3.76158727 7.70648535 1.48828125 5.59765625 C0.26743934 4.11095765 -0.87246522 2.55865102 -2 1 C-1.34 0.67 -0.68 0.34 0 0 Z " fill="#1160E0" transform="translate(150,128)"/>
<path d="M0 0 C0.99 0.33 1.98 0.66 3 1 C0.03 3.64 -2.94 6.28 -6 9 C-6.33 7.68 -6.66 6.36 -7 5 C-5.8125 3.25 -5.8125 3.25 -4 2 C-2.68 2 -1.36 2 0 2 C0 1.34 0 0.68 0 0 Z " fill="#175ED9" transform="translate(177,90)"/>
<path d="M0 0 C0.33 0.66 0.66 1.32 1 2 C-0.21484375 4.6015625 -0.21484375 4.6015625 -1.9375 7.625 C-2.78634766 9.12933594 -2.78634766 9.12933594 -3.65234375 10.6640625 C-4.09707031 11.43492187 -4.54179687 12.20578125 -5 13 C-5.33 13 -5.66 13 -6 13 C-6 11.35 -6 9.7 -6 8 C-5.34 8 -4.68 8 -4 8 C-3.67 6.35 -3.34 4.7 -3 3 C-2.34 3 -1.68 3 -1 3 C-0.67 2.01 -0.34 1.02 0 0 Z " fill="#1960D2" transform="translate(149,153)"/>
<path d="M0 0 C2.97 0.495 2.97 0.495 6 1 C5.67 2.65 5.34 4.3 5 6 C3.68 6.33 2.36 6.66 1 7 C0.67 4.69 0.34 2.38 0 0 Z " fill="#0665FA" transform="translate(114,90)"/>
<path d="M0 0 C0.66 0.33 1.32 0.66 2 1 C2.33 1.99 2.66 2.98 3 4 C3.99 4.33 4.98 4.66 6 5 C6 5.66 6 6.32 6 7 C3.07120629 6.37240135 0.63904371 5.41377341 -2 4 C-1.34 2.68 -0.68 1.36 0 0 Z " fill="#2B5FC4" transform="translate(168,182)"/>
<path d="M0 0 C1.32 0 2.64 0 4 0 C3.773125 0.763125 3.54625 1.52625 3.3125 2.3125 C3.209375 3.199375 3.10625 4.08625 3 5 C4.33378575 6.8354799 4.33378575 6.8354799 6 8 C3 8 3 8 1 7 C0.59270772 4.67843403 0.25561323 2.3431213 0 0 Z " fill="#1062E6" transform="translate(68,170)"/>
<path d="M0 0 C4.95696581 1.23924145 7.11658466 2.78577758 10 7 C9.67 7.66 9.34 8.32 9 9 C7.49704815 7.69088122 5.99770689 6.37761608 4.5 5.0625 C3.6646875 4.33160156 2.829375 3.60070312 1.96875 2.84765625 C1.3190625 2.23792969 0.669375 1.62820312 0 1 C0 0.67 0 0.34 0 0 Z " fill="#1A54D8" transform="translate(117,100)"/>
<path d="M0 0 C0.66 0 1.32 0 2 0 C2 0.66 2 1.32 2 2 C2.99 2.33 3.98 2.66 5 3 C5 4.32 5 5.64 5 7 C4.34 7 3.68 7 3 7 C2.67 6.01 2.34 5.02 2 4 C-0.00016466 2.79117904 -0.00016466 2.79117904 -2 2 C-1.34 1.34 -0.68 0.68 0 0 Z " fill="#2B58B9" transform="translate(170,160)"/>
<path d="M0 0 C0.66 0.33 1.32 0.66 2 1 C-0.3125 3.5 -0.3125 3.5 -3 6 C-3.99 6 -4.98 6 -6 6 C-6 5.34 -6 4.68 -6 4 C-4.03852126 2.61061923 -2.03833424 1.2739589 0 0 Z " fill="#185FDA" transform="translate(74,161)"/>
<path d="M0 0 C0.66 0.66 1.32 1.32 2 2 C1.67 2.99 1.34 3.98 1 5 C-1.31 5 -3.62 5 -6 5 C-4.6875 3.5 -4.6875 3.5 -3 2 C-2.01 2 -1.02 2 0 2 C0 1.34 0 0.68 0 0 Z " fill="#1063ED" transform="translate(83,155)"/>
<path d="M0 0 C0.928125 0.20625 1.85625 0.4125 2.8125 0.625 C2.8125 1.615 2.8125 2.605 2.8125 3.625 C-1.6425 2.635 -1.6425 2.635 -6.1875 1.625 C-3.1875 -0.375 -3.1875 -0.375 0 0 Z " fill="#0F54E8" transform="translate(53.1875,107.375)"/>
<path d="M0 0 C0.66 0 1.32 0 2 0 C2.66 2.97 3.32 5.94 4 9 C2 7.875 2 7.875 0 6 C-0.25 2.8125 -0.25 2.8125 0 0 Z " fill="#215AD8" transform="translate(113,91)"/>
<path d="M0 0 C0.66 0.33 1.32 0.66 2 1 C0.95125002 3.62187494 0.35068687 4.79371361 -2.125 6.25 C-2.74375 6.4975 -3.3625 6.745 -4 7 C-2.92598892 4.08482708 -2.22189824 2.22189824 0 0 Z " fill="#1661E2" transform="translate(186,81)"/>
<path d="M0 0 C0.66 0.33 1.32 0.66 2 1 C0.87926138 1.83905565 -0.24674547 2.67107831 -1.375 3.5 C-2.00148438 3.9640625 -2.62796875 4.428125 -3.2734375 4.90625 C-5 6 -5 6 -7 6 C-6 3 -6 3 -3.0625 1.25 C-2.051875 0.8375 -1.04125 0.425 0 0 Z " fill="#1B77FE" transform="translate(88,151)"/>
<path d="M0 0 C0.598125 0.309375 1.19625 0.61875 1.8125 0.9375 C4.08956772 2.10209704 4.08956772 2.10209704 7 3 C7.33 4.65 7.66 6.3 8 8 C6.85073734 7.04578192 5.70569459 6.08647955 4.5625 5.125 C3.92441406 4.59132813 3.28632813 4.05765625 2.62890625 3.5078125 C1 2 1 2 0 0 Z " fill="#1557D1" transform="translate(140,121)"/>
<path d="M0 0 C3.2542015 2.83430453 4.5206753 4.68607774 5 9 C4.34 8.67 3.68 8.34 3 8 C3 7.34 3 6.68 3 6 C2.34 6 1.68 6 1 6 C0.67 4.02 0.34 2.04 0 0 Z " fill="#1D5CD0" transform="translate(196,51)"/>
<path d="M0 0 C2.97 0.495 2.97 0.495 6 1 C6.33 1.99 6.66 2.98 7 4 C4.97954558 3.39816251 2.97888961 2.72693904 1 2 C0.67 1.34 0.34 0.68 0 0 Z " fill="#165EDA" transform="translate(77,181)"/>
</svg>
